<svg width="1041" height="1271" xmlns="http://www.w3.org/2000/svg" xmlns:xlink="http://www.w3.org/1999/xlink" fill-opacity="0" fill="white"><defs><style>
  text {
    fill: #212529;
    font-family: Helvetica Neue, Helvetica, Arial, sans-serif;
    font-size: 16px;
  }

  marker, text {
    fill-opacity: 1;
  }

  * {
    overflow: visible;
  }
</style></defs><svg x="460" y="0" width="230" height="280" class="Course"><g><rect width="100%" height="40"></rect><rect y="40" width="100%" height="240" fill="white"></rect><svg height="40"><text x="50%" y="50%" dominant-baseline="middle" text-anchor="middle" font-weight="bold" pointer-events="none">Course</text></svg><rect width="100%" height="100%" stroke="black" fill="none" pointer-events="none"></rect><path d="M 0 40 H 230" stroke="black"></path><path d="M 0 280 H 230" stroke="black"></path></g></svg><svg x="460" y="40" width="230" height="30" class="title"><g><rect width="100%" height="100%"></rect><text x="10" y="50%" dominant-baseline="middle" pointer-events="none">title</text></g></svg><svg x="460" y="70" width="230" height="30" class="shortName"><g><rect width="100%" height="100%"></rect><text x="10" y="50%" dominant-baseline="middle" pointer-events="none">shortName</text></g></svg><svg x="460" y="100" width="230" height="30" class="startDate"><g><rect width="100%" height="100%"></rect><text x="10" y="50%" dominant-baseline="middle" pointer-events="none">startDate</text></g></svg><svg x="460" y="130" width="230" height="30" class="endDate"><g><rect width="100%" height="100%"></rect><text x="10" y="50%" dominant-baseline="middle" pointer-events="none">endDate</text></g></svg><svg x="460" y="160" width="230" height="30" class="onlineCourse"><g><rect width="100%" height="100%"></rect><text x="10" y="50%" dominant-baseline="middle" pointer-events="none">onlineCourse</text></g></svg><svg x="460" y="190" width="230" height="30" class="studentGroupName"><g><rect width="100%" height="100%"></rect><text x="10" y="50%" dominant-baseline="middle" pointer-events="none">studentGroupName</text></g></svg><svg x="460" y="220" width="230" height="30" class="teachingAssistentGroupName"><g><rect width="100%" height="100%"></rect><text x="10" y="50%" dominant-baseline="middle" pointer-events="none">teachingAssistentGroupName</text></g></svg><svg x="460" y="250" width="230" height="30" class="instructorGroupName"><g><rect width="100%" height="100%"></rect><text x="10" y="50%" dominant-baseline="middle" pointer-events="none">instructorGroupName</text></g></svg><svg x="480" y="440" width="200" height="280" class="Exercise"><g><rect width="100%" height="40"></rect><rect y="40" width="100%" height="240" fill="white"></rect><svg height="40"><text x="50%" y="50%" dominant-baseline="middle" text-anchor="middle" font-weight="bold" pointer-events="none">Exercise</text></svg><rect width="100%" height="100%" stroke="black" fill="none" pointer-events="none"></rect><path d="M 0 40 H 200" stroke="black"></path><path d="M 0 280 H 200" stroke="black"></path></g></svg><svg x="480" y="480" width="200" height="30" class="title"><g><rect width="100%" height="100%"></rect><text x="10" y="50%" dominant-baseline="middle" pointer-events="none">title</text></g></svg><svg x="480" y="510" width="200" height="30" class="shortName"><g><rect width="100%" height="100%"></rect><text x="10" y="50%" dominant-baseline="middle" pointer-events="none">shortName</text></g></svg><svg x="480" y="540" width="200" height="30" class="releaseDate"><g><rect width="100%" height="100%"></rect><text x="10" y="50%" dominant-baseline="middle" pointer-events="none">releaseDate</text></g></svg><svg x="480" y="570" width="200" height="30" class="dueDate"><g><rect width="100%" height="100%"></rect><text x="10" y="50%" dominant-baseline="middle" pointer-events="none">dueDate</text></g></svg><svg x="480" y="600" width="200" height="30" class="maxScore"><g><rect width="100%" height="100%"></rect><text x="10" y="50%" dominant-baseline="middle" pointer-events="none">maxScore</text></g></svg><svg x="480" y="630" width="200" height="30" class="problemStatement"><g><rect width="100%" height="100%"></rect><text x="10" y="50%" dominant-baseline="middle" pointer-events="none">problemStatement</text></g></svg><svg x="480" y="660" width="200" height="30" class="gradingInstructions"><g><rect width="100%" height="100%"></rect><text x="10" y="50%" dominant-baseline="middle" pointer-events="none">gradingInstructions</text></g></svg><svg x="480" y="690" width="200" height="30" class="assessmentDueDate"><g><rect width="100%" height="100%"></rect><text x="10" y="50%" dominant-baseline="middle" pointer-events="none">assessmentDueDate</text></g></svg><svg x="840" y="370" width="200" height="40" class="ProgrammingExercise"><g><rect width="100%" height="40"></rect><rect y="40" width="100%" height="0" fill="white"></rect><svg height="40"><text x="50%" y="50%" dominant-baseline="middle" text-anchor="middle" font-weight="bold" pointer-events="none">ProgrammingExercise</text></svg><rect width="100%" height="100%" stroke="black" fill="none" pointer-events="none"></rect><path d="M 0 40 H 200" stroke="black"></path><path d="M 0 40 H 200" stroke="black"></path></g></svg><svg x="840" y="430" width="200" height="40" class="ModelingExercise"><g><rect width="100%" height="40"></rect><rect y="40" width="100%" height="0" fill="white"></rect><svg height="40"><text x="50%" y="50%" dominant-baseline="middle" text-anchor="middle" font-weight="bold" pointer-events="none">ModelingExercise</text></svg><rect width="100%" height="100%" stroke="black" fill="none" pointer-events="none"></rect><path d="M 0 40 H 200" stroke="black"></path><path d="M 0 40 H 200" stroke="black"></path></g></svg><svg x="840" y="750" width="200" height="40" class="TextExercise"><g><rect width="100%" height="40"></rect><rect y="40" width="100%" height="0" fill="white"></rect><svg height="40"><text x="50%" y="50%" dominant-baseline="middle" text-anchor="middle" font-weight="bold" pointer-events="none">TextExercise</text></svg><rect width="100%" height="100%" stroke="black" fill="none" pointer-events="none"></rect><path d="M 0 40 H 200" stroke="black"></path><path d="M 0 40 H 200" stroke="black"></path></g></svg><svg x="840" y="690" width="200" height="40" class="QuizExercise"><g><rect width="100%" height="40"></rect><rect y="40" width="100%" height="0" fill="white"></rect><svg height="40"><text x="50%" y="50%" dominant-baseline="middle" text-anchor="middle" font-weight="bold" pointer-events="none">QuizExercise</text></svg><rect width="100%" height="100%" stroke="black" fill="none" pointer-events="none"></rect><path d="M 0 40 H 200" stroke="black"></path><path d="M 0 40 H 200" stroke="black"></path></g></svg><svg x="490" y="810" width="200" height="160" class="Participation"><g><rect width="100%" height="40"></rect><rect y="40" width="100%" height="120" fill="white"></rect><svg height="40"><text x="50%" y="50%" dominant-baseline="middle" text-anchor="middle" font-weight="bold" pointer-events="none">Participation</text></svg><rect width="100%" height="100%" stroke="black" fill="none" pointer-events="none"></rect><path d="M 0 40 H 200" stroke="black"></path><path d="M 0 160 H 200" stroke="black"></path></g></svg><svg x="490" y="850" width="200" height="30" class="repositoryUrl"><g><rect width="100%" height="100%"></rect><text x="10" y="50%" dominant-baseline="middle" pointer-events="none">repositoryUrl</text></g></svg><svg x="490" y="880" width="200" height="30" class="buildPlanId"><g><rect width="100%" height="100%"></rect><text x="10" y="50%" dominant-baseline="middle" pointer-events="none">buildPlanId</text></g></svg><svg x="490" y="910" width="200" height="30" class="initializationDate"><g><rect width="100%" height="100%"></rect><text x="10" y="50%" dominant-baseline="middle" pointer-events="none">initializationDate</text></g></svg><svg x="490" y="940" width="200" height="30" class="presentationScore"><g><rect width="100%" height="100%"></rect><text x="10" y="50%" dominant-baseline="middle" pointer-events="none">presentationScore</text></g></svg><svg x="10" y="710" width="230" height="260" class="InitializationState"><g><rect width="100%" height="50"></rect><rect y="50" width="100%" height="210" fill="white"></rect><svg height="50"><text x="50%" y="50%" dominant-baseline="middle" text-anchor="middle" font-weight="bold" pointer-events="none"><tspan x="50%" dy="-8" text-anchor="middle" font-size="85%">«enumeration»</tspan><tspan x="50%" dy="18" text-anchor="middle">InitializationState</tspan></text></svg><rect width="100%" height="100%" stroke="black" fill="none" pointer-events="none"></rect><path d="M 0 50 H 230" stroke="black"></path><path d="M 0 260 H 230" stroke="black"></path></g></svg><svg x="10" y="760" width="230" height="30" class="UNINITIALIZED"><g><rect width="100%" height="100%"></rect><text x="10" y="50%" dominant-baseline="middle" pointer-events="none">UNINITIALIZED</text></g></svg><svg x="10" y="790" width="230" height="30" class="REPO_COPIED"><g><rect width="100%" height="100%"></rect><text x="10" y="50%" dominant-baseline="middle" pointer-events="none">REPO_COPIED</text></g></svg><svg x="10" y="820" width="230" height="30" class="INACTIVE"><g><rect width="100%" height="100%"></rect><text x="10" y="50%" dominant-baseline="middle" pointer-events="none">INACTIVE</text></g></svg><svg x="10" y="850" width="230" height="30" class="BUILD_PLAN_COPIED"><g><rect width="100%" height="100%"></rect><text x="10" y="50%" dominant-baseline="middle" pointer-events="none">BUILD_PLAN_COPIED</text></g></svg><svg x="10" y="880" width="230" height="30" class="BUILD_PLAN_CONFIGURED"><g><rect width="100%" height="100%"></rect><text x="10" y="50%" dominant-baseline="middle" pointer-events="none">BUILD_PLAN_CONFIGURED</text></g></svg><svg x="10" y="910" width="230" height="30" class="INITIALIZED"><g><rect width="100%" height="100%"></rect><text x="10" y="50%" dominant-baseline="middle" pointer-events="none">INITIALIZED</text></g></svg><svg x="10" y="940" width="230" height="30" class="FINISHED"><g><rect width="100%" height="100%"></rect><text x="10" y="50%" dominant-baseline="middle" pointer-events="none">FINISHED</text></g></svg><svg x="0" y="1050" width="200" height="220" class="User"><g><rect width="100%" height="40"></rect><rect y="40" width="100%" height="180" fill="white"></rect><svg height="40"><text x="50%" y="50%" dominant-baseline="middle" text-anchor="middle" font-weight="bold" pointer-events="none">User</text></svg><rect width="100%" height="100%" stroke="black" fill="none" pointer-events="none"></rect><path d="M 0 40 H 200" stroke="black"></path><path d="M 0 220 H 200" stroke="black"></path></g></svg><svg x="0" y="1090" width="200" height="30" class="login"><g><rect width="100%" height="100%"></rect><text x="10" y="50%" dominant-baseline="middle" pointer-events="none">login</text></g></svg><svg x="0" y="1120" width="200" height="30" class="password"><g><rect width="100%" height="100%"></rect><text x="10" y="50%" dominant-baseline="middle" pointer-events="none">password</text></g></svg><svg x="0" y="1150" width="200" height="30" class="firstName"><g><rect width="100%" height="100%"></rect><text x="10" y="50%" dominant-baseline="middle" pointer-events="none">firstName</text></g></svg><svg x="0" y="1180" width="200" height="30" class="lastName"><g><rect width="100%" height="100%"></rect><text x="10" y="50%" dominant-baseline="middle" pointer-events="none">lastName</text></g></svg><svg x="0" y="1210" width="200" height="30" class="email"><g><rect width="100%" height="100%"></rect><text x="10" y="50%" dominant-baseline="middle" pointer-events="none">email</text></g></svg><svg x="0" y="1240" width="200" height="30" class="activated"><g><rect width="100%" height="100%"></rect><text x="10" y="50%" dominant-baseline="middle" pointer-events="none">activated</text></g></svg><svg x="525.859375" y="280" width="126.71875" height="170" class=""><g><polyline points="54.140625 0,54.140625 160" stroke="black" fill="none" stroke-width="1" marker-end="url(#marker-e555453e-a8b7-4628-8b50-a510b704c002)"></polyline><text x="54.140625" y="8" dx="5" dy="10" text-anchor="start" pointer-events="none">1</text><text x="54.140625" y="152" dx="5" text-anchor="start" pointer-events="none">exercises</text><text x="54.140625" y="8" dx="-5" dy="10" text-anchor="end" pointer-events="none">course</text><text x="54.140625" y="152" dx="-5" text-anchor="end" pointer-events="none">*</text></g></svg><svg x="680" y="440" width="160" height="161" class=""><g><marker id="marker-df281240-c723-4913-af55-22a7cbbff3cb" viewBox="0 0 30 30" markerWidth="22" markerHeight="30" refX="30" refY="15" orient="auto" markerUnits="strokeWidth" stroke-dasharray="1,0"><path d="M0,1 L0,29 L30,15 z" fill="white" stroke="black"></path></marker><polyline points="160 10,80 10,80 140,0 140" stroke="black" fill="none" stroke-width="1" marker-end="url(#marker-df281240-c723-4913-af55-22a7cbbff3cb)"></polyline><text x="152" y="10" dy="21" text-anchor="end" pointer-events="none"></text><text x="31" y="140" dy="21" text-anchor="start" pointer-events="none"></text><text x="152" y="10" dy="-10" text-anchor="end" pointer-events="none"></text><text x="31" y="140" dy="-10" text-anchor="start" pointer-events="none"></text></g></svg><svg x="680" y="570" width="160" height="161" class=""><g><marker id="marker-0e0b209b-b000-486f-b395-5c2c998bda9f" viewBox="0 0 30 30" markerWidth="22" markerHeight="30" refX="30" refY="15" orient="auto" markerUnits="strokeWidth" stroke-dasharray="1,0"><path d="M0,1 L0,29 L30,15 z" fill="white" stroke="black"></path></marker><polyline points="160 140,80 140,80 10,0 10" stroke="black" fill="none" stroke-width="1" marker-end="url(#marker-0e0b209b-b000-486f-b395-5c2c998bda9f)"></polyline><text x="152" y="140" dy="21" text-anchor="end" pointer-events="none"></text><text x="31" y="10" dy="21" text-anchor="start" pointer-events="none"></text><text x="152" y="140" dy="-10" text-anchor="end" pointer-events="none"></text><text x="31" y="10" dy="-10" text-anchor="start" pointer-events="none"></text></g></svg><svg x="680" y="570" width="160" height="221" class=""><g><marker id="marker-2335e9b7-2238-4447-a785-396621216839" viewBox="0 0 30 30" markerWidth="22" markerHeight="30" refX="30" refY="15" orient="auto" markerUnits="strokeWidth" stroke-dasharray="1,0"><path d="M0,1 L0,29 L30,15 z" fill="white" stroke="black"></path></marker><polyline points="160 200,80 200,80 10,0 10" stroke="black" fill="none" stroke-width="1" marker-end="url(#marker-2335e9b7-2238-4447-a785-396621216839)"></polyline><text x="152" y="200" dy="21" text-anchor="end" pointer-events="none"></text><text x="31" y="10" dy="21" text-anchor="start" pointer-events="none"></text><text x="152" y="200" dy="-10" text-anchor="end" pointer-events="none"></text><text x="31" y="10" dy="-10" text-anchor="start" pointer-events="none"></text></g></svg><svg x="680" y="380" width="160" height="221" class=""><g><marker id="marker-48a89791-db21-4c50-9852-af786b70bb8b" viewBox="0 0 30 30" markerWidth="22" markerHeight="30" refX="30" refY="15" orient="auto" markerUnits="strokeWidth" stroke-dasharray="1,0"><path d="M0,1 L0,29 L30,15 z" fill="white" stroke="black"></path></marker><polyline points="160 10,80 10,80 200,0 200" stroke="black" fill="none" stroke-width="1" marker-end="url(#marker-48a89791-db21-4c50-9852-af786b70bb8b)"></polyline><text x="152" y="10" dy="21" text-anchor="end" pointer-events="none"></text><text x="31" y="200" dy="21" text-anchor="start" pointer-events="none"></text><text x="152" y="10" dy="-10" text-anchor="end" pointer-events="none"></text><text x="31" y="200" dy="-10" text-anchor="start" pointer-events="none"></text></g></svg><svg x="520.34375" y="720" width="163.84375" height="100" class=""><g><polyline points="64.65625 0,64.65625 90" stroke="black" fill="none" stroke-width="1" marker-end="url(#marker-48ddb93c-c98b-4816-81ab-22a6792bd9d5)"></polyline><text x="64.65625" y="8" dx="5" dy="10" text-anchor="start" pointer-events="none">1</text><text x="64.65625" y="82" dx="5" text-anchor="start" pointer-events="none">participations</text><text x="64.65625" y="8" dx="-5" dy="10" text-anchor="end" pointer-events="none">exercise</text><text x="64.65625" y="82" dx="-5" text-anchor="end" pointer-events="none">*</text></g></svg><svg x="240" y="880" width="250" height="31" class=""><g><polyline points="0 10,250 10" stroke="black" fill="none" stroke-width="1" marker-end="url(#marker-d25baf22-547c-46be-a0da-5196d81cda7f)"></polyline><text x="8" y="10" dy="21" text-anchor="start" pointer-events="none"></text><text x="242" y="10" dy="21" text-anchor="end" pointer-events="none"></text><text x="8" y="10" dy="-10" text-anchor="start" pointer-events="none">initializationState</text><text x="242" y="10" dy="-10" text-anchor="end" pointer-events="none"></text></g></svg><svg x="95" y="970" width="586.3125" height="80" class=""><g><polyline points="495 0,495 40,5 40,5 80" stroke="black" fill="none" stroke-width="1" marker-end="url(#marker-7a406c4e-32e5-4801-8e7b-b3cb3a735338)"></polyline><text x="495" y="8" dx="5" dy="10" text-anchor="start" pointer-events="none">participation</text><text x="5" y="72" dx="5" text-anchor="start" pointer-events="none"></text><text x="495" y="8" dx="-5" dy="10" text-anchor="end" pointer-events="none">*</text><text x="5" y="72" dx="-5" text-anchor="end" pointer-events="none"></text></g></svg></svg>